<?xml version="1.0" encoding="utf-8"?>
<!-- Generator: Adobe Illustrator 28.0.0, SVG Export Plug-In . SVG Version: 6.00 Build 0)  -->
<svg version="1.1" id="Слой_1" xmlns="http://www.w3.org/2000/svg" xmlns:xlink="http://www.w3.org/1999/xlink" x="0px" y="0px"
	 viewBox="0 0 3706.56 840.65" style="enable-background:new 0 0 3706.56 840.65;" xml:space="preserve">
<style type="text/css">
	.st0{fill:none;stroke:#000000;stroke-miterlimit:10;}
	.st1{fill:#2B2B2B;}
	.st2{fill:#F4EBDF;}
	.st3{fill:#FAA507;}
	.st4{fill:#F4EBDF;stroke:#F4EBDF;stroke-width:3.115;stroke-miterlimit:10;}
</style>
<g>
	<line class="st4" x1="2718.98" y1="189.03" x2="2718.98" y2="149.44"/>
	<path class="st2" d="M694.18,595.53l-11.66-13.2c17.6-4.04,33.34-12.97,45.67-25.31c17.14-17.19,27.76-40.91,27.76-67.08
		c0-15.19-3.58-29.57-9.93-42.27c-15.56-31.16-47.71-52.57-84.91-52.57H539.34v291.18h53.88v-101.5h19.68l13.2,14.97l76.24,86.54
		h71.84L694.18,595.53z M593.22,532.21v-84.54h67.94c23.36,0,42.27,18.91,42.27,42.27c0,11.66-4.72,22.27-12.38,29.89
		c-7.66,7.66-18.19,12.38-29.89,12.38H593.22z"/>
	<path class="st2" d="M827.34,441.43h-57.51c-7.89-21.04-21.95-39.28-39.82-52.11c-2.31-1.68-4.72-3.27-7.17-4.72l-200.83-132.3
		L235.1,441.43h-35.33l304.65-200.79l9.16-6.03l17.64,11.61L827.34,441.43z"/>
	<path class="st3" d="M678.72,369.67c-2.83-0.25-5.67-0.37-8.54-0.4H500.1v310.41h-40.71v-73.23h-63.36l25.42-40.68h37.94V426.61
		l-12.18,19.53L378.8,555.63l-1.9,3.05l-75.54,120.99h-59.68V451.22L522,266.44L678.72,369.67z"/>
	<path class="st2" d="M522,258.53L235.11,447.67v238.61h69.93l77.47-124.1l1.9-3.02l68.41-109.52v109.52h-35.04l-33.64,53.89h68.69
		v73.23h53.86V375.87h163.51c19.06,0.09,37.07,5.54,52.67,14.98L522,258.53z M500.1,369.26v310.41h-40.71v-73.23h-63.36l25.42-40.68
		h37.94V426.61l-12.18,19.53L378.8,555.63l-1.9,3.05l-75.54,120.99h-59.68V451.22L522,266.44l156.72,103.23
		c-2.83-0.25-5.67-0.37-8.54-0.4H500.1z"/>
	<g>
		<path class="st2" d="M1030.72,623.53h-86.03l-17.53,63.6h-65.24l87.66-303.34h76.65l86.44,303.34h-65.64L1030.72,623.53z
			 M959.37,568.08h57.08l-27.72-107.64L959.37,568.08z"/>
		<path class="st2" d="M1202.37,488.17v198.97h-61.97V383.79h65.64l109.68,190v-190h61.97v303.34h-60.75L1202.37,488.17z"/>
		<path class="st2" d="M1551.78,687.14h-64.83V439.24h-76.65v-55.45h218.54v55.45h-77.06V687.14z"/>
		<path class="st2" d="M1766.44,567.27h-41.37v119.87h-64.83V383.79h121.46c14.89,0,28.43,2.04,40.62,6.11
			c12.19,4.08,22.55,10.06,31.08,17.94c8.53,7.89,15.17,17.74,19.91,29.56c4.74,11.82,7.11,25.48,7.11,40.97
			c0,17.94-4.53,33.5-13.59,46.68c-9.06,13.19-21.97,22.77-38.73,28.75l65.78,133.32h-72.27L1766.44,567.27z M1770.32,439.24h-45.26
			v72.57h38.74c6.25,0,12.5-0.33,18.76-0.99c6.25-0.66,11.82-2.19,16.71-4.59c4.89-2.39,8.83-5.85,11.83-10.37
			c2.99-4.51,4.48-10.63,4.48-18.34c0-6.91-0.96-12.76-2.85-17.55c-1.9-4.78-4.63-8.64-8.15-11.56
			C1797.5,442.3,1786.08,439.24,1770.32,439.24z"/>
		<path class="st2" d="M1934.63,383.79h203.45v55.45h-138.62v61.97h101.11v55.45l-101.11,0.41v74.61h143.52v55.45h-208.35V383.79z"
			/>
		<path class="st2" d="M2407.18,480.42l-59.12,206.71h-49.34l-58.3-206.31v206.31h-57.9V383.79h86.85l53.82,194.89l54.23-194.89
			h87.66v303.34h-57.9V480.42z"/>
		<path class="st2" d="M2629.59,691.22c-23.61,0-43.56-4.15-59.84-12.43c-16.28-8.29-29.52-19.57-39.69-33.84
			c-10.18-14.27-17.51-30.85-21.99-49.74c-4.48-18.89-6.71-38.8-6.71-59.73c0-20.93,2.24-40.84,6.71-59.73
			c4.48-18.89,11.8-35.47,21.99-49.74c10.17-14.27,23.41-25.54,39.69-33.84c16.28-8.29,36.23-12.44,59.84-12.44
			s43.49,4.15,59.64,12.44c16.14,8.29,29.31,19.57,39.49,33.84c10.17,14.27,17.5,30.85,21.98,49.74c4.48,18.9,6.72,38.8,6.72,59.73
			c0,49.2-10.86,87.25-32.57,114.16C2702.86,677.35,2671.11,691.22,2629.59,691.22z M2629.59,435.17
			c-22.09,0-38.05,8.22-47.86,24.66c-10.37,17-15.55,42.21-15.55,75.64c0,33.43,5.18,58.65,15.55,75.64
			c9.81,16.44,25.76,24.66,47.86,24.66c21.81,0,37.63-8.22,47.45-24.66c10.36-16.99,15.54-42.21,15.54-75.64
			c0-33.43-5.19-58.64-15.54-75.64C2667.22,443.39,2651.4,435.17,2629.59,435.17z"/>
		<path class="st2" d="M2892.83,687.14h-99.96V383.79h99.15c24.11,0,44.89,3.6,62.37,10.8c17.47,7.21,31.9,17.47,43.27,30.78
			c11.38,13.32,19.78,29.29,25.19,47.91c5.41,18.62,8.13,39.48,8.13,62.59c0,24.19-2.85,45.6-8.54,64.22
			c-5.69,18.62-14.63,34.45-26.81,47.5C2972.07,673.96,2937.8,687.14,2892.83,687.14z M2892.08,439.24h-34.38v192.44h33.56
			c15,0,27.35-2.53,37.03-7.6c9.68-5.07,17.33-12.06,22.92-20.97c5.59-8.91,9.48-19.19,11.66-30.84
			c2.18-11.64,3.27-24.05,3.27-37.22c0-16.17-1.57-30.22-4.71-42.14c-3.14-11.93-7.71-21.87-13.71-29.81
			C2935.74,447.19,2917.18,439.24,2892.08,439.24z"/>
		<path class="st2" d="M3067.27,383.79h203.45v55.45H3132.1v61.97h101.11v55.45l-101.11,0.41v74.61h143.52v55.45h-208.35V383.79z"/>
		<path class="st2" d="M3313.94,383.79h64.83v247.89h128.02v55.45h-192.85V383.79z"/>
	</g>
</g>
</svg>
