<svg aria-hidden="true" style="position: absolute; width: 0; height: 0; overflow: hidden;" version="1.1" xmlns="http://www.w3.org/2000/svg" xmlns:xlink="http://www.w3.org/1999/xlink">
<defs>
<symbol id="icon-close-btn-white" viewBox="0 0 32 32">
<path fill="#fff" style="fill: var(--color1, #fff)" d="M13.879 16l-12.441-12.438c-0.139-0.139-0.25-0.305-0.326-0.487s-0.114-0.378-0.114-0.575c0-0.197 0.039-0.393 0.114-0.575s0.186-0.348 0.326-0.487c0.139-0.139 0.305-0.25 0.487-0.326s0.377-0.114 0.575-0.114c0.197 0 0.393 0.039 0.575 0.114s0.348 0.186 0.487 0.326l12.438 12.441 12.438-12.441c0.282-0.282 0.664-0.44 1.062-0.44s0.78 0.158 1.062 0.44c0.282 0.282 0.44 0.664 0.44 1.062s-0.158 0.78-0.44 1.062l-12.441 12.438 12.441 12.438c0.282 0.282 0.44 0.664 0.44 1.062s-0.158 0.78-0.44 1.062c-0.282 0.282-0.664 0.44-1.062 0.44s-0.78-0.158-1.062-0.44l-12.438-12.441-12.438 12.441c-0.282 0.282-0.664 0.44-1.062 0.44s-0.78-0.158-1.062-0.44c-0.282-0.282-0.44-0.664-0.44-1.062s0.158-0.78 0.44-1.062l12.441-12.438z"></path>
</symbol>
</defs>
</svg>
