<svg aria-hidden="true" style="position: absolute; width: 0; height: 0; overflow: hidden;" version="1.1" xmlns="http://www.w3.org/2000/svg" xmlns:xlink="http://www.w3.org/1999/xlink">
<defs>
<symbol id="icon-logo-dark" viewBox="0 0 32 32">
<path fill="#212a35" style="fill: var(--color1, #212a35)" d="M5.12 22.483h-0.811l-0.165 0.6h-0.615l0.827-2.861h0.723l0.815 2.861h-0.619l-0.154-0.6zM4.447 21.96h0.538l-0.261-1.015-0.277 1.015z"></path>
<path fill="#212a35" style="fill: var(--color1, #212a35)" d="M6.739 21.207v1.876h-0.584v-2.861h0.619l1.034 1.792v-1.792h0.584v2.861h-0.573l-1.080-1.876z"></path>
<path fill="#212a35" style="fill: var(--color1, #212a35)" d="M10.034 23.083h-0.611v-2.338h-0.723v-0.523h2.061v0.523h-0.727v2.338z"></path>
<path fill="#212a35" style="fill: var(--color1, #212a35)" d="M12.059 21.953h-0.39v1.131h-0.611v-2.861h1.145c0.14 0 0.268 0.019 0.383 0.058s0.213 0.095 0.293 0.169c0.080 0.074 0.143 0.167 0.188 0.279s0.067 0.24 0.067 0.386c0 0.169-0.043 0.316-0.128 0.44s-0.207 0.215-0.365 0.271l0.62 1.257h-0.682l-0.52-1.131zM12.095 20.745h-0.427v0.684h0.365c0.059 0 0.118-0.003 0.177-0.009s0.112-0.021 0.158-0.043 0.083-0.055 0.112-0.098c0.028-0.043 0.042-0.1 0.042-0.173 0-0.065-0.009-0.12-0.027-0.165s-0.044-0.081-0.077-0.109c-0.067-0.058-0.174-0.087-0.323-0.087z"></path>
<path fill="#212a35" style="fill: var(--color1, #212a35)" d="M13.645 20.222h1.919v0.523h-1.307v0.584h0.954v0.523l-0.954 0.004v0.704h1.353v0.523h-1.965v-2.861z"></path>
<path fill="#212a35" style="fill: var(--color1, #212a35)" d="M18.101 21.134l-0.558 1.95h-0.465l-0.55-1.946v1.946h-0.546v-2.861h0.819l0.508 1.838 0.511-1.838h0.827v2.861h-0.546v-1.95z"></path>
<path fill="#212a35" style="fill: var(--color1, #212a35)" d="M20.199 23.122c-0.223 0-0.411-0.039-0.564-0.117s-0.278-0.185-0.374-0.319-0.165-0.291-0.207-0.469c-0.042-0.178-0.063-0.366-0.063-0.563s0.021-0.385 0.063-0.563c0.042-0.178 0.111-0.335 0.207-0.469s0.221-0.241 0.374-0.319c0.154-0.078 0.342-0.117 0.564-0.117s0.41 0.039 0.562 0.117c0.152 0.078 0.276 0.185 0.372 0.319s0.165 0.291 0.207 0.469c0.042 0.178 0.063 0.366 0.063 0.563 0 0.464-0.102 0.823-0.307 1.077-0.207 0.261-0.507 0.392-0.898 0.392zM20.199 20.707c-0.208 0-0.359 0.078-0.451 0.233-0.098 0.16-0.147 0.398-0.147 0.713s0.049 0.553 0.147 0.713c0.092 0.155 0.243 0.233 0.451 0.233s0.355-0.077 0.448-0.233c0.098-0.16 0.147-0.398 0.147-0.713s-0.049-0.553-0.147-0.713c-0.093-0.155-0.242-0.233-0.448-0.233z"></path>
<path fill="#212a35" style="fill: var(--color1, #212a35)" d="M22.682 23.083h-0.943v-2.861h0.935c0.227 0 0.423 0.034 0.588 0.102s0.301 0.165 0.408 0.29c0.107 0.126 0.187 0.276 0.238 0.452s0.077 0.372 0.077 0.59-0.027 0.43-0.080 0.606c-0.054 0.176-0.138 0.325-0.253 0.448-0.222 0.249-0.545 0.373-0.97 0.373zM22.675 20.745h-0.324v1.815h0.316c0.141 0 0.258-0.024 0.349-0.072s0.163-0.114 0.216-0.198c0.053-0.084 0.089-0.181 0.11-0.291s0.031-0.227 0.031-0.351c0-0.152-0.015-0.285-0.044-0.397s-0.073-0.206-0.129-0.281c-0.113-0.15-0.288-0.225-0.525-0.225z"></path>
<path fill="#212a35" style="fill: var(--color1, #212a35)" d="M24.327 20.222h1.919v0.523h-1.307v0.584h0.954v0.523l-0.954 0.004v0.704h1.353v0.523h-1.965v-2.861z"></path>
<path fill="#212a35" style="fill: var(--color1, #212a35)" d="M26.653 20.222h0.611v2.338h1.207v0.523h-1.819v-2.861z"></path>
<path fill="#212a35" style="fill: var(--color1, #212a35)" d="M20.023 16.917l-0.26-0.294c0.392-0.090 0.742-0.289 1.017-0.564 0.382-0.383 0.618-0.911 0.618-1.494 0-0.338-0.080-0.659-0.221-0.941-0.347-0.694-1.063-1.171-1.891-1.171h-2.712v6.485h1.2v-2.261h0.438l1.992 2.261h1.6l-1.782-2.021zM17.774 15.507v-1.883h1.513c0.52 0 0.941 0.421 0.941 0.941 0 0.26-0.105 0.496-0.276 0.666s-0.405 0.276-0.666 0.276h-1.513z"></path>
<path fill="#212a35" style="fill: var(--color1, #212a35)" d="M22.989 13.485h-1.281c-0.176-0.469-0.489-0.875-0.887-1.161-0.052-0.037-0.105-0.073-0.16-0.105l-4.473-2.947-6.39 4.212h-0.787l6.989-4.606 0.393 0.259 6.595 4.348z"></path>
<path fill="#faa507" style="fill: var(--color2, #faa507)" d="M14.72 18.865v-1.631h-1.47l0.658-1.053h0.813v-2.769l-3.405 5.454h-1.444v-5.201l6.317-4.164 3.813 2.512c-0.168-0.039-0.34-0.059-0.512-0.060h-3.715v6.913h-1.053z"></path>
<path fill="#212a35" style="fill: var(--color1, #212a35)" d="M16.188 9.587l3.49 2.299c-0.063-0.005-0.126-0.008-0.19-0.008h-3.788v6.913h-0.906v-1.631h-1.411l0.566-0.906h0.845v-3.099l-3.52 5.637h-1.329v-5.088l6.243-4.116zM16.188 9.411l-6.39 4.212v5.314h1.558l3.291-5.271v2.44h-0.78l-0.75 1.2h1.529v1.631h1.2v-6.913h3.642c0.424 0.002 0.825 0.123 1.173 0.333l-4.473-2.947z"></path>
</symbol>
<symbol id="icon-logo-light" viewBox="0 0 32 32">
<path fill="#f4ebdf" style="fill: var(--color3, #f4ebdf)" d="M22.96 21.205l-0.449-0.509c0.678-0.156 1.284-0.5 1.76-0.975 0.661-0.662 1.070-1.576 1.070-2.585 0-0.585-0.138-1.14-0.383-1.629-0.6-1.201-1.839-2.026-3.272-2.026h-4.692v11.22h2.076v-3.911h0.759l3.447 3.912h2.768l-3.083-3.497zM19.070 18.765v-3.258h2.618c0.9 0 1.629 0.729 1.629 1.629 0 0.449-0.182 0.858-0.477 1.152-0.295 0.295-0.701 0.477-1.152 0.477h-2.618z"></path>
<path fill="#f4ebdf" style="fill: var(--color3, #f4ebdf)" d="M28.092 15.267h-2.216c-0.304-0.811-0.846-1.514-1.535-2.008-0.089-0.065-0.182-0.126-0.276-0.182l-7.739-5.098-11.056 7.288h-1.361l12.092-7.97 0.68 0.447 11.411 7.522z"></path>
<path fill="#faa507" style="fill: var(--color2, #faa507)" d="M13.786 24.575v-2.823h-2.544l1.138-1.822h1.406v-4.791l-5.892 9.436h-2.497v-8.999l10.929-7.204 6.597 4.346c-0.291-0.067-0.588-0.102-0.887-0.104h-6.428v11.961h-1.822z"></path>
<path fill="#f4ebdf" style="fill: var(--color3, #f4ebdf)" d="M16.326 8.524l6.038 3.977c-0.109-0.009-0.218-0.014-0.328-0.015h-6.554v11.961h-1.568v-2.822h-2.442l0.979-1.568h1.462v-5.362l-6.089 9.752h-2.3v-8.804l10.802-7.12zM16.326 8.22l-11.056 7.288v9.195h2.695l5.694-9.12v4.221h-1.349l-1.297 2.076h2.646v2.823h2.076v-11.961h6.3c0.734 0.004 1.428 0.213 2.029 0.577l-7.739-5.098z"></path>
</symbol>
<symbol id="icon-logo" viewBox="0 0 32 32">
<path fill="#f4ebdf" style="fill: var(--color3, #f4ebdf)" d="M5.12 22.483h-0.811l-0.165 0.6h-0.615l0.827-2.861h0.723l0.815 2.861h-0.619l-0.154-0.6zM4.447 21.96h0.538l-0.261-1.015-0.277 1.015z"></path>
<path fill="#f4ebdf" style="fill: var(--color3, #f4ebdf)" d="M6.739 21.207v1.876h-0.584v-2.861h0.619l1.034 1.792v-1.792h0.584v2.861h-0.573l-1.080-1.876z"></path>
<path fill="#f4ebdf" style="fill: var(--color3, #f4ebdf)" d="M10.034 23.083h-0.611v-2.338h-0.723v-0.523h2.061v0.523h-0.727v2.338z"></path>
<path fill="#f4ebdf" style="fill: var(--color3, #f4ebdf)" d="M12.059 21.953h-0.39v1.131h-0.611v-2.861h1.145c0.14 0 0.268 0.019 0.383 0.058s0.213 0.095 0.293 0.169c0.080 0.074 0.143 0.167 0.188 0.279s0.067 0.24 0.067 0.386c0 0.169-0.043 0.316-0.128 0.44s-0.207 0.215-0.365 0.271l0.62 1.257h-0.682l-0.52-1.13zM12.095 20.745h-0.427v0.684h0.365c0.059 0 0.118-0.003 0.177-0.009s0.112-0.021 0.158-0.043 0.083-0.055 0.112-0.098c0.028-0.043 0.042-0.1 0.042-0.173 0-0.065-0.009-0.12-0.027-0.165s-0.044-0.081-0.077-0.109c-0.067-0.058-0.174-0.087-0.323-0.087z"></path>
<path fill="#f4ebdf" style="fill: var(--color3, #f4ebdf)" d="M13.645 20.222h1.919v0.523h-1.307v0.584h0.954v0.523l-0.954 0.004v0.704h1.353v0.523h-1.965v-2.861z"></path>
<path fill="#f4ebdf" style="fill: var(--color3, #f4ebdf)" d="M18.101 21.134l-0.558 1.95h-0.465l-0.55-1.946v1.946h-0.546v-2.861h0.819l0.508 1.838 0.511-1.838h0.827v2.861h-0.546v-1.95z"></path>
<path fill="#f4ebdf" style="fill: var(--color3, #f4ebdf)" d="M20.199 23.122c-0.223 0-0.411-0.039-0.564-0.117s-0.278-0.185-0.374-0.319-0.165-0.291-0.207-0.469c-0.042-0.178-0.063-0.366-0.063-0.563s0.021-0.385 0.063-0.563c0.042-0.178 0.111-0.335 0.207-0.469s0.221-0.241 0.374-0.319c0.154-0.078 0.342-0.117 0.564-0.117s0.41 0.039 0.562 0.117c0.152 0.078 0.276 0.185 0.372 0.319s0.165 0.291 0.207 0.469c0.042 0.178 0.063 0.366 0.063 0.563 0 0.464-0.102 0.823-0.307 1.077-0.208 0.261-0.507 0.392-0.898 0.392zM20.199 20.707c-0.208 0-0.359 0.078-0.451 0.233-0.098 0.16-0.147 0.398-0.147 0.713s0.049 0.553 0.147 0.713c0.092 0.155 0.243 0.233 0.451 0.233 0.206 0 0.355-0.077 0.448-0.233 0.098-0.16 0.147-0.398 0.147-0.713s-0.049-0.553-0.147-0.713c-0.093-0.155-0.242-0.233-0.448-0.233z"></path>
<path fill="#f4ebdf" style="fill: var(--color3, #f4ebdf)" d="M22.682 23.083h-0.943v-2.861h0.935c0.227 0 0.423 0.034 0.588 0.102s0.301 0.165 0.408 0.29c0.107 0.126 0.187 0.276 0.238 0.452s0.077 0.372 0.077 0.59c0 0.228-0.027 0.43-0.080 0.606s-0.138 0.325-0.253 0.448c-0.222 0.249-0.545 0.373-0.969 0.373zM22.675 20.745h-0.324v1.815h0.316c0.141 0 0.258-0.024 0.349-0.072s0.163-0.114 0.216-0.198c0.053-0.084 0.089-0.181 0.11-0.291s0.031-0.227 0.031-0.351c0-0.152-0.015-0.285-0.044-0.397s-0.073-0.206-0.129-0.281c-0.113-0.15-0.288-0.225-0.525-0.225z"></path>
<path fill="#f4ebdf" style="fill: var(--color3, #f4ebdf)" d="M24.327 20.222h1.919v0.523h-1.307v0.584h0.954v0.523l-0.954 0.004v0.704h1.353v0.523h-1.965v-2.861z"></path>
<path fill="#f4ebdf" style="fill: var(--color3, #f4ebdf)" d="M26.653 20.222h0.611v2.338h1.207v0.523h-1.819v-2.861z"></path>
<path fill="#f4ebdf" style="fill: var(--color3, #f4ebdf)" d="M20.023 16.917l-0.26-0.294c0.392-0.090 0.742-0.289 1.017-0.564 0.382-0.383 0.618-0.911 0.618-1.494 0-0.338-0.080-0.659-0.221-0.941-0.347-0.694-1.063-1.171-1.891-1.171h-2.712v6.485h1.2v-2.261h0.438l1.992 2.261h1.6l-1.782-2.021zM17.774 15.507v-1.883h1.513c0.52 0 0.941 0.421 0.941 0.941 0 0.26-0.105 0.496-0.276 0.666s-0.405 0.276-0.666 0.276h-1.513z"></path>
<path fill="#f4ebdf" style="fill: var(--color3, #f4ebdf)" d="M22.989 13.485h-1.281c-0.176-0.469-0.489-0.875-0.887-1.161-0.052-0.037-0.105-0.073-0.16-0.105l-4.473-2.947-6.39 4.212h-0.787l6.989-4.606 0.393 0.259 6.595 4.348z"></path>
<path fill="#faa507" style="fill: var(--color2, #faa507)" d="M14.72 18.865v-1.631h-1.47l0.658-1.053h0.813v-2.769l-3.405 5.454h-1.444v-5.201l6.317-4.164 3.813 2.512c-0.168-0.039-0.34-0.059-0.512-0.060h-3.715v6.913h-1.053z"></path>
<path fill="#f4ebdf" style="fill: var(--color3, #f4ebdf)" d="M16.188 9.587l3.49 2.299c-0.063-0.005-0.126-0.008-0.19-0.008h-3.788v6.913h-0.906v-1.631h-1.412l0.566-0.906h0.845v-3.099l-3.52 5.636h-1.329v-5.088l6.244-4.116zM16.188 9.411l-6.39 4.212v5.314h1.558l3.291-5.271v2.44h-0.78l-0.75 1.2h1.529v1.631h1.2v-6.913h3.642c0.424 0.002 0.825 0.123 1.173 0.333l-4.473-2.947z"></path>
</symbol>
<symbol id="icon-logoname" viewBox="0 0 141 32">
<path fill="#f4ebdf" style="fill: var(--color3, #f4ebdf)" d="M26.424 22.669l-0.444-0.502c0.67-0.154 1.269-0.494 1.738-0.963 0.652-0.654 1.057-1.557 1.057-2.553 0-0.578-0.136-1.126-0.378-1.609-0.592-1.186-1.816-2.001-3.232-2.001h-4.635v11.084h2.051v-3.864h0.749l3.405 3.864h2.735l-3.045-3.455zM22.581 20.259v-3.218h2.586c0.889 0 1.609 0.72 1.609 1.609 0 0.444-0.18 0.848-0.471 1.138-0.292 0.292-0.692 0.471-1.138 0.471h-2.586z"></path>
<path fill="#f4ebdf" style="fill: var(--color3, #f4ebdf)" d="M31.493 16.803h-2.189c-0.3-0.801-0.836-1.495-1.516-1.984-0.088-0.064-0.18-0.124-0.273-0.18l-7.645-5.036-10.921 7.199h-1.345l11.945-7.873 0.671 0.442 11.272 7.431z"></path>
<path fill="#faa507" style="fill: var(--color2, #faa507)" d="M25.836 14.072c-0.108-0.010-0.216-0.014-0.325-0.015h-6.474v11.816h-1.55v-2.788h-2.412l0.968-1.549h1.444v-5.297l-0.464 0.743-5.552 8.89h-2.272v-8.696l10.671-7.034 5.966 3.93z"></path>
<path fill="#f4ebdf" style="fill: var(--color3, #f4ebdf)" d="M19.87 9.841l-10.921 7.2v9.083h2.662l5.625-9.008v4.169h-1.334l-1.281 2.051h2.615v2.788h2.050v-11.816h6.224c0.726 0.003 1.411 0.211 2.005 0.57l-7.646-5.037zM19.037 14.056v11.816h-1.55v-2.788h-2.412l0.968-1.549h1.444v-5.297l-0.464 0.743-5.552 8.89h-2.272v-8.696l10.671-7.034 5.966 3.93c-0.108-0.010-0.216-0.014-0.325-0.015h-6.474z"></path>
<path fill="#f4ebdf" style="fill: var(--color3, #f4ebdf)" d="M39.235 23.735h-3.275l-0.667 2.421h-2.483l3.337-11.547h2.918l3.29 11.547h-2.499l-0.621-2.421zM36.519 21.624h2.173l-1.055-4.097-1.118 4.097z"></path>
<path fill="#f4ebdf" style="fill: var(--color3, #f4ebdf)" d="M45.769 18.583v7.574h-2.359v-11.547h2.499l4.175 7.232v-7.232h2.359v11.547h-2.313l-4.361-7.574z"></path>
<path fill="#f4ebdf" style="fill: var(--color3, #f4ebdf)" d="M59.070 26.157h-2.468v-9.437h-2.918v-2.111h8.319v2.111h-2.933v9.437z"></path>
<path fill="#f4ebdf" style="fill: var(--color3, #f4ebdf)" d="M67.241 21.594h-1.575v4.563h-2.468v-11.547h4.623c0.567 0 1.082 0.078 1.546 0.233s0.858 0.383 1.183 0.683c0.325 0.3 0.577 0.675 0.758 1.125s0.271 0.97 0.271 1.56c0 0.683-0.172 1.275-0.517 1.777s-0.836 0.867-1.474 1.094l2.504 5.075h-2.751l-2.1-4.562zM67.389 16.72h-1.723v2.762h1.475c0.238 0 0.476-0.013 0.714-0.038s0.45-0.083 0.636-0.175c0.186-0.091 0.336-0.223 0.45-0.395s0.171-0.405 0.171-0.698c0-0.263-0.037-0.486-0.109-0.668s-0.176-0.329-0.31-0.44c-0.269-0.233-0.704-0.349-1.304-0.349z"></path>
<path fill="#f4ebdf" style="fill: var(--color3, #f4ebdf)" d="M73.643 14.609h7.744v2.111h-5.277v2.359h3.849v2.111l-3.849 0.016v2.84h5.463v2.111h-7.931v-11.547z"></path>
<path fill="#f4ebdf" style="fill: var(--color3, #f4ebdf)" d="M91.631 18.288l-2.25 7.869h-1.878l-2.219-7.853v7.853h-2.204v-11.547h3.306l2.049 7.419 2.064-7.419h3.337v11.547h-2.204v-7.869z"></path>
<path fill="#f4ebdf" style="fill: var(--color3, #f4ebdf)" d="M100.097 26.312c-0.899 0-1.658-0.158-2.278-0.473s-1.124-0.745-1.511-1.288c-0.388-0.543-0.667-1.174-0.837-1.893s-0.255-1.477-0.255-2.274c0-0.797 0.085-1.555 0.255-2.274s0.449-1.35 0.837-1.893c0.387-0.543 0.891-0.972 1.511-1.288s1.379-0.474 2.278-0.474 1.655 0.158 2.27 0.474c0.614 0.316 1.116 0.745 1.503 1.288s0.666 1.174 0.837 1.893c0.171 0.719 0.256 1.477 0.256 2.274 0 1.873-0.413 3.321-1.24 4.346-0.837 1.055-2.046 1.583-3.626 1.583zM100.097 16.565c-0.841 0-1.448 0.313-1.822 0.939-0.395 0.647-0.592 1.607-0.592 2.879s0.197 2.233 0.592 2.879c0.373 0.626 0.981 0.939 1.822 0.939 0.83 0 1.432-0.313 1.806-0.939 0.394-0.647 0.592-1.607 0.592-2.879s-0.198-2.232-0.592-2.879c-0.374-0.626-0.976-0.939-1.806-0.939z"></path>
<path fill="#f4ebdf" style="fill: var(--color3, #f4ebdf)" d="M110.118 26.157h-3.805v-11.547h3.774c0.918 0 1.709 0.137 2.374 0.411s1.214 0.665 1.647 1.172c0.433 0.507 0.753 1.115 0.959 1.824s0.309 1.503 0.309 2.383c0 0.921-0.109 1.736-0.325 2.445s-0.557 1.311-1.021 1.808c-0.897 1.004-2.201 1.506-3.913 1.506zM110.089 16.72h-1.309v7.325h1.278c0.571 0 1.041-0.096 1.41-0.289s0.66-0.459 0.872-0.798c0.213-0.339 0.361-0.73 0.444-1.174s0.124-0.915 0.124-1.417c0-0.616-0.060-1.15-0.179-1.604s-0.293-0.832-0.522-1.135c-0.456-0.606-1.163-0.908-2.118-0.908z"></path>
<path fill="#f4ebdf" style="fill: var(--color3, #f4ebdf)" d="M116.758 14.609h7.744v2.111h-5.277v2.359h3.849v2.111l-3.849 0.016v2.84h5.463v2.111h-7.931v-11.547z"></path>
<path fill="#f4ebdf" style="fill: var(--color3, #f4ebdf)" d="M126.148 14.609h2.468v9.436h4.873v2.111h-7.341v-11.547z"></path>
</symbol>
</defs>
</svg>
