<svg aria-hidden="true" style="position: absolute; width: 0; height: 0; overflow: hidden;" version="1.1" xmlns="http://www.w3.org/2000/svg" xmlns:xlink="http://www.w3.org/1999/xlink">
<defs>
<symbol id="icon-tik-tok" viewBox="0 0 27 32">
<path d="M21.6 5.406c-1.172-1.338-1.817-3.056-1.817-4.834h-5.297v21.257c-0.040 1.151-0.525 2.241-1.354 3.040s-1.935 1.246-3.086 1.245c-2.434 0-4.457-1.989-4.457-4.457 0-2.949 2.846-5.16 5.777-4.251v-5.417c-5.914-0.789-11.091 3.806-11.091 9.669 0 5.709 4.731 9.771 9.754 9.771 5.383 0 9.754-4.371 9.754-9.771v-10.783c2.148 1.543 4.727 2.37 7.371 2.366v-5.297c0 0-3.223 0.154-5.554-2.537z"></path>
</symbol>
<symbol id="icon-insta" viewBox="0 0 32 32">
<path d="M17.645 0c1.8 0.005 2.714 0.014 3.502 0.037l0.31 0.011c0.358 0.013 0.712 0.029 1.139 0.048 1.702 0.080 2.864 0.349 3.883 0.744 1.056 0.406 1.946 0.957 2.835 1.845 0.814 0.8 1.444 1.767 1.845 2.835 0.395 1.019 0.664 2.181 0.744 3.885 0.019 0.426 0.035 0.779 0.048 1.139l0.010 0.31c0.024 0.787 0.034 1.701 0.037 3.501l0.002 1.194v2.096c0.004 1.167-0.008 2.334-0.037 3.501l-0.010 0.31c-0.013 0.36-0.029 0.714-0.048 1.139-0.080 1.704-0.352 2.864-0.746 3.885-0.401 1.068-1.031 2.036-1.845 2.835-0.8 0.814-1.767 1.444-2.835 1.845-1.019 0.395-2.181 0.664-3.883 0.744l-1.139 0.048-0.31 0.010c-0.789 0.022-1.702 0.034-3.502 0.037l-3.288 0.002c-1.168 0.004-2.335-0.008-3.502-0.037l-0.31-0.010c-0.38-0.014-0.76-0.031-1.139-0.050-1.702-0.080-2.864-0.349-3.885-0.744-1.067-0.401-2.034-1.031-2.834-1.845-0.815-0.799-1.445-1.767-1.846-2.835-0.395-1.019-0.664-2.181-0.744-3.885l-0.048-1.139-0.008-0.31c-0.029-1.167-0.043-2.334-0.040-3.501v-3.29c-0.004-1.167 0.007-2.334 0.035-3.501l0.011-0.31c0.013-0.36 0.029-0.714 0.048-1.139 0.080-1.704 0.349-2.864 0.744-3.885 0.403-1.068 1.034-2.036 1.85-2.835 0.799-0.814 1.765-1.443 2.832-1.845 1.021-0.395 2.181-0.664 3.885-0.744 0.426-0.019 0.781-0.035 1.139-0.048l0.31-0.010c1.167-0.028 2.334-0.041 3.501-0.037l3.29-0.002zM16 8c-2.122 0-4.156 0.843-5.657 2.343s-2.343 3.535-2.343 5.657 0.843 4.157 2.343 5.657c1.5 1.5 3.535 2.343 5.657 2.343s4.157-0.843 5.657-2.343c1.5-1.5 2.343-3.535 2.343-5.657s-0.843-4.157-2.343-5.657c-1.5-1.5-3.535-2.343-5.657-2.343zM16 11.2c0.63-0 1.255 0.124 1.837 0.365s1.112 0.595 1.557 1.040c0.446 0.446 0.799 0.975 1.041 1.557s0.366 1.207 0.366 1.837c0 0.63-0.124 1.255-0.365 1.837s-0.595 1.112-1.040 1.557c-0.446 0.446-0.975 0.799-1.557 1.041s-1.206 0.366-1.837 0.366c-1.273 0-2.494-0.506-3.394-1.406s-1.406-2.121-1.406-3.394 0.506-2.494 1.406-3.394c0.9-0.9 2.121-1.406 3.394-1.406zM24.401 5.6c-0.53 0-1.039 0.211-1.414 0.586s-0.586 0.884-0.586 1.414c0 0.53 0.211 1.039 0.586 1.414s0.884 0.586 1.414 0.586c0.53 0 1.039-0.211 1.414-0.586s0.586-0.884 0.586-1.414-0.211-1.039-0.586-1.414c-0.375-0.375-0.884-0.586-1.414-0.586z"></path>
</symbol>
<symbol id="icon-fb" viewBox="0 0 32 32">
<path d="M32 16c0-8.832-7.168-16-16-16s-16 7.168-16 16c0 7.744 5.504 14.192 12.8 15.68v-10.88h-3.2v-4.8h3.2v-4c0-3.088 2.512-5.6 5.6-5.6h4v4.8h-3.2c-0.88 0-1.6 0.72-1.6 1.6v3.2h4.8v4.8h-4.8v11.12c8.080-0.8 14.4-7.616 14.4-15.92z"></path>
</symbol>
<symbol id="icon-phone" viewBox="0 0 32 32">
<path fill="#fffefa" style="fill: var(--color1, #fffefa)" d="M8.827 14.387c1.92 3.773 5.013 6.853 8.787 8.787l2.933-2.933c0.36-0.36 0.893-0.48 1.36-0.32 1.493 0.493 3.107 0.76 4.76 0.76 0.733 0 1.333 0.6 1.333 1.333v4.653c0 0.733-0.6 1.333-1.333 1.333-12.52 0-22.667-10.147-22.667-22.667 0-0.733 0.6-1.333 1.333-1.333h4.667c0.733 0 1.333 0.6 1.333 1.333 0 1.667 0.267 3.267 0.76 4.76 0.147 0.467 0.040 0.987-0.333 1.36l-2.933 2.933z"></path>
</symbol>
</defs>
</svg>
