<svg aria-hidden="true" style="position: absolute; width: 0; height: 0; overflow: hidden;" version="1.1" xmlns="http://www.w3.org/2000/svg" xmlns:xlink="http://www.w3.org/1999/xlink">
<defs>
<symbol id="icon-tiktok" viewBox="0 0 27 32">
<path fill="#faa507" style="fill: var(--color1, #faa507)" d="M21.6 5.406c-1.172-1.338-1.817-3.056-1.817-4.834h-5.297v21.257c-0.040 1.151-0.525 2.241-1.354 3.040s-1.935 1.246-3.086 1.245c-2.434 0-4.457-1.989-4.457-4.457 0-2.949 2.846-5.16 5.777-4.251v-5.417c-5.914-0.789-11.091 3.806-11.091 9.669 0 5.709 4.731 9.771 9.754 9.771 5.383 0 9.754-4.371 9.754-9.771v-10.783c2.148 1.543 4.727 2.37 7.371 2.366v-5.297c0 0-3.223 0.154-5.554-2.537z"></path>
</symbol>
<symbol id="icon-insta" viewBox="0 0 35 32">
<path fill="#faa507" style="fill: var(--color1, #faa507)" d="M18.95 0c1.636 0.004 2.467 0.013 3.184 0.033l0.282 0.010c0.326 0.012 0.647 0.026 1.036 0.044 1.548 0.073 2.604 0.317 3.53 0.676 0.96 0.369 1.769 0.87 2.577 1.677 0.74 0.727 1.312 1.607 1.677 2.577 0.359 0.927 0.604 1.983 0.676 3.532 0.017 0.387 0.032 0.708 0.044 1.036l0.009 0.282c0.022 0.716 0.031 1.546 0.033 3.183l0.001 1.085v1.905c0.004 1.061-0.008 2.122-0.033 3.183l-0.009 0.282c-0.012 0.327-0.026 0.649-0.044 1.036-0.073 1.549-0.32 2.604-0.678 3.532-0.365 0.971-0.937 1.851-1.677 2.577-0.727 0.74-1.607 1.312-2.577 1.677-0.927 0.359-1.983 0.604-3.53 0.676l-1.036 0.044-0.282 0.009c-0.717 0.020-1.548 0.031-3.184 0.033l-2.989 0.001c-1.061 0.004-2.123-0.007-3.184-0.033l-0.282-0.009c-0.345-0.013-0.691-0.028-1.036-0.045-1.548-0.073-2.604-0.317-3.532-0.676-0.97-0.365-1.85-0.937-2.576-1.677-0.74-0.727-1.313-1.606-1.679-2.577-0.359-0.927-0.604-1.983-0.676-3.532l-0.044-1.036-0.007-0.282c-0.027-1.061-0.039-2.122-0.036-3.183v-2.991c-0.004-1.061 0.007-2.122 0.032-3.183l0.010-0.282c0.012-0.327 0.026-0.649 0.044-1.036 0.073-1.549 0.317-2.604 0.676-3.532 0.366-0.971 0.94-1.851 1.681-2.577 0.726-0.74 1.605-1.312 2.575-1.677 0.928-0.359 1.982-0.604 3.532-0.676 0.387-0.017 0.71-0.032 1.036-0.044l0.282-0.009c1.061-0.026 2.122-0.037 3.183-0.033l2.991-0.001zM17.454 7.273c-1.929 0-3.779 0.766-5.143 2.13s-2.13 3.214-2.13 5.143 0.766 3.779 2.13 5.143c1.364 1.364 3.214 2.13 5.143 2.13s3.779-0.766 5.143-2.13c1.364-1.364 2.13-3.214 2.13-5.143s-0.766-3.779-2.13-5.143c-1.364-1.364-3.214-2.13-5.143-2.13zM17.454 10.182c0.573-0 1.141 0.113 1.67 0.332s1.011 0.54 1.416 0.946c0.405 0.405 0.727 0.886 0.946 1.415s0.332 1.097 0.332 1.67c0 0.573-0.113 1.14-0.332 1.67s-0.541 1.011-0.946 1.416c-0.405 0.405-0.886 0.727-1.415 0.946s-1.097 0.332-1.67 0.332c-1.157 0-2.267-0.46-3.085-1.278s-1.278-1.928-1.278-3.086 0.46-2.267 1.278-3.086c0.818-0.818 1.928-1.278 3.085-1.278zM25.092 5.091c-0.482 0-0.945 0.192-1.286 0.533s-0.533 0.803-0.533 1.286c0 0.482 0.192 0.945 0.533 1.286s0.803 0.533 1.286 0.533c0.482 0 0.945-0.192 1.286-0.533s0.532-0.803 0.532-1.286-0.192-0.945-0.532-1.286c-0.341-0.341-0.803-0.533-1.286-0.533z"></path>
</symbol>
<symbol id="icon-fb" viewBox="0 0 32 32">
<path fill="#faa507" style="fill: var(--color1, #faa507)" d="M32 16c0-8.832-7.168-16-16-16s-16 7.168-16 16c0 7.744 5.504 14.192 12.8 15.68v-10.88h-3.2v-4.8h3.2v-4c0-3.088 2.512-5.6 5.6-5.6h4v4.8h-3.2c-0.88 0-1.6 0.72-1.6 1.6v3.2h4.8v4.8h-4.8v11.12c8.080-0.8 14.4-7.616 14.4-15.92z"></path>
</symbol>
<symbol id="icon-mail" viewBox="0 0 32 32">
<path fill="#faa507" style="fill: var(--color1, #faa507)" d="M29.333 10.047v12.62c0 1.020-0.39 2.002-1.090 2.744s-1.657 1.189-2.676 1.249l-0.235 0.007h-18.667c-1.020 0-2.002-0.39-2.744-1.090s-1.189-1.657-1.249-2.676l-0.007-0.235v-12.62l12.593 8.396 0.155 0.088c0.182 0.089 0.382 0.135 0.585 0.135s0.403-0.046 0.585-0.135l0.155-0.088 12.593-8.396z"></path>
<path fill="#faa507" style="fill: var(--color1, #faa507)" d="M25.333 5.333c1.44 0 2.703 0.76 3.407 1.903l-12.74 8.493-12.74-8.493c0.334-0.543 0.794-0.998 1.34-1.327s1.163-0.523 1.799-0.566l0.268-0.009h18.667z"></path>
</symbol>
<symbol id="icon-location" viewBox="0 0 32 32">
<path fill="#faa507" style="fill: var(--color1, #faa507)" d="M13.487 29.081c0.808 0.667 1.651 1.276 2.513 1.871 0.864-0.587 1.703-1.211 2.513-1.871 1.351-1.109 2.622-2.312 3.804-3.599 2.725-2.98 5.683-7.3 5.683-12.149 0-1.576-0.31-3.136-0.913-4.592s-1.487-2.779-2.601-3.893c-1.114-1.114-2.437-1.998-3.893-2.601s-3.016-0.913-4.592-0.913-3.136 0.31-4.592 0.913c-1.456 0.603-2.779 1.487-3.893 2.601s-1.998 2.437-2.601 3.893c-0.603 1.456-0.913 3.016-0.913 4.592 0 4.849 2.957 9.168 5.683 12.149 1.182 1.288 2.453 2.489 3.804 3.599zM16 17.666c-1.149 0-2.251-0.456-3.064-1.269s-1.269-1.915-1.269-3.064 0.457-2.251 1.269-3.064c0.813-0.813 1.915-1.269 3.064-1.269s2.252 0.457 3.064 1.269c0.813 0.813 1.269 1.915 1.269 3.064s-0.456 2.251-1.269 3.064c-0.813 0.813-1.915 1.269-3.064 1.269z"></path>
</symbol>
<symbol id="icon-phone" viewBox="0 0 32 32">
<path fill="#faa507" style="fill: var(--color1, #faa507)" d="M9.229 15.252c2.080 4.088 5.431 7.424 9.519 9.519l3.178-3.178c0.39-0.39 0.968-0.52 1.473-0.347 1.618 0.534 3.366 0.823 5.157 0.823 0.795 0 1.444 0.65 1.444 1.444v5.041c0 0.795-0.65 1.444-1.444 1.444-13.563 0-24.556-10.992-24.556-24.556 0-0.794 0.65-1.444 1.444-1.444h5.056c0.794 0 1.444 0.65 1.444 1.444 0 1.806 0.289 3.539 0.823 5.157 0.159 0.506 0.043 1.069-0.361 1.473l-3.178 3.178z"></path>
</symbol>
</defs>
</svg>
